<svg width="95" height="53" viewBox="0 0 95 53" fill="none" xmlns="http://www.w3.org/2000/svg">
<g id="Isolation_Mode" clip-path="url(#clip0_53_8529)">
<path id="Vector" d="M28.8397 24.9764C28.6373 25.1656 28.2754 24.5057 28.3061 24.9825C28.3582 25.7747 27.8983 26.2992 27.656 26.9376C27.0949 27.2099 26.7238 28.0836 25.8821 27.5068C25.8499 27.4837 25.6766 27.5852 25.6429 27.6606C25.3393 28.3651 24.6371 28.5758 24.0621 28.9158C22.0935 30.0772 20.0696 29.8018 18.1071 28.9312C17.5797 28.6974 17.043 28.6358 16.373 28.2713C16.6781 28.7743 16.8821 29.0635 17.0308 29.3788C17.0982 29.5219 17.2148 29.7126 17.0829 29.8818C16.9357 30.0741 16.7609 29.9249 16.5953 29.891C15.7137 29.7064 14.9149 29.3465 14.1345 28.8927C13.1195 28.302 12.4618 27.3283 11.5495 26.6361C11.528 26.6254 11.5066 26.6146 11.4836 26.6023C11.505 26.6146 11.5265 26.6269 11.548 26.6392C11.4728 27.133 11.824 27.5514 11.8362 28.1405C10.2662 27.1991 9.46433 25.7086 8.49073 24.1626C8.48307 24.8671 8.80811 25.3409 8.74985 25.9393C8.28528 25.4178 7.86671 24.9487 7.44967 24.4795C7.45427 24.3688 7.46041 24.258 7.46501 24.1473C7.4788 24.1365 7.49107 24.1257 7.5018 24.115C7.52327 24.0934 7.53553 24.0734 7.5432 24.0534C7.55547 24.015 7.5432 23.978 7.50947 23.9427C7.50487 23.9365 7.49874 23.9304 7.4926 23.9257C7.48187 23.9165 7.46807 23.9057 7.45274 23.895C7.47114 23.8242 7.48954 23.7535 7.50794 23.6827C7.56313 23.4704 7.61679 23.2582 7.68272 23.0474C7.72259 22.9197 7.77012 22.7736 7.66586 22.6936C7.4972 22.5644 7.38988 22.7336 7.29635 22.8428C7.21969 22.9305 7.21202 23.092 7.02344 23.0459C7.19669 21.2061 7.68579 19.5264 9.39993 18.4065C8.95223 18.2804 8.91237 18.1051 9.24814 17.7805C10.0791 16.9806 11.1263 16.4884 12.0064 15.7515C12.7577 15.1239 13.6347 15.3331 14.3108 16.1007C14.4504 16.2607 14.4304 16.5591 14.7003 16.5868C14.9502 16.3222 14.5086 16.1315 14.642 15.8777C14.734 15.8408 14.8643 15.8315 14.9149 15.7639C15.5773 14.8532 15.657 13.7918 15.6677 12.7181C15.6677 12.572 15.5834 12.369 15.3918 12.4536C14.9211 12.6581 15.1097 12.2797 15.0744 12.1121C15.0253 11.8767 15.1541 11.6152 14.9916 11.3783C14.6712 11.4106 14.5577 11.9552 14.2372 11.7706C13.9291 11.5921 14.0134 11.1814 13.9996 10.8523C13.9904 10.6707 14.0793 10.4569 13.9061 10.3016C13.5534 10.4739 13.6316 10.9615 13.2299 11.1214V9.70627C13.1993 9.46169 13.3694 9.32479 13.532 9.21403C14.3936 8.62181 15.0437 7.84039 15.6233 6.97744C16.5187 5.64378 17.109 4.15323 17.8603 2.74574C18.0734 2.34734 18.2052 1.7382 18.7296 1.70743C19.1865 1.67974 19.4119 1.45208 19.6771 1.18443C19.7814 1.07983 19.8734 0.949079 20.0543 0.959847C21.0202 1.01061 21.954 0.724497 22.9061 0.667582C23.386 0.638355 23.8705 0.569135 24.3703 0.87832C24.611 1.02753 25.1201 1.31518 25.5233 0.955232C25.5693 0.955232 25.6138 0.962924 25.6582 0.978306C25.6061 1.39209 25.7012 1.71974 26.0155 2.04584C26.4018 2.44732 26.7269 2.93187 26.5782 3.56255C26.293 3.61331 25.9388 3.45795 25.7625 3.82712C25.4006 4.5947 25.255 4.1763 25.0986 3.71483C25.0419 3.55024 24.9422 3.40103 24.8502 3.22106C24.5804 3.72355 24.2523 3.82969 23.8659 3.53947C23.6252 3.82097 23.5454 4.23014 23.1836 4.42857C22.969 4.29013 23.0625 3.92711 22.7896 3.86558C22.558 4.05478 22.6577 4.39166 22.4155 4.53471C22.1778 4.52395 22.2499 4.16246 22.1042 4.17015C21.6611 4.34397 21.8758 5.23 21.1858 4.85928C20.87 4.69008 20.3594 4.687 20.3609 4.11016C20.0727 4.33013 20.1509 4.57778 20.1325 4.79929C20.0052 6.27908 20.4238 7.62811 21.1046 8.91715C21.2349 9.16327 21.5047 9.5063 21.4265 9.66628C21.0923 10.3539 21.6381 10.7354 21.8574 11.2276C21.9846 11.5168 22.2284 11.7614 22.2161 12.0859C21.9494 12.2274 21.8129 11.7706 21.6059 11.9859C22.256 14.4317 22.8555 16.8329 21.3683 19.1741C21.333 19.231 21.356 19.3249 21.3514 19.4018C21.2165 19.3987 21.1122 19.4464 21.0632 19.5818C19.8764 20.5924 17.3988 19.9325 16.741 18.4927C16.439 17.8343 16.2488 17.1652 16.4558 16.4207C16.7609 15.3239 16.465 14.1026 17.1596 13.0735C17.316 12.8427 17.4616 12.4243 17.3574 12.2274C16.8238 11.2137 17.4141 10.3631 17.6916 9.48476C17.8419 9.01099 17.825 8.57259 17.7652 8.10343C17.1228 9.27095 16.6061 10.4692 16.5999 11.8383C16.5999 12.3151 16.7165 12.8043 16.5064 13.2734C15.7843 14.8917 15.47 16.5637 15.8502 18.3281C15.8103 19.1511 16.1369 19.874 16.5034 20.5739C17.7775 22.9982 20.7243 23.3166 22.4109 21.1646C23.0717 20.3201 23.685 19.3556 23.0793 18.1758C23.0839 18.1512 23.0824 18.1235 23.0931 18.1004C23.1023 18.0835 23.1223 18.0635 23.1407 18.0589C23.4259 17.9851 23.3032 18.3342 23.4749 18.3804C23.8889 18.4927 23.3369 19.7171 24.3535 19.1541C24.355 19.1541 24.4332 19.328 24.4976 19.3987C24.6172 19.5295 24.5666 19.8202 24.8594 19.7925C24.8824 19.5664 24.9039 19.3433 24.9238 19.1603C25.2489 18.9942 25.3516 19.5925 25.5908 19.3356C25.8269 19.0834 25.5003 18.8942 25.3439 18.7111C24.8104 18.0881 25.5494 18.2496 25.8146 18.1097C25.3495 17.88 25.0603 17.5646 24.9468 17.1637C27.1271 17.5559 29.1049 21.946 28.8412 24.9764H28.8397Z" fill="#A683FE"/>
<path id="Vector_2" d="M51.711 47.5238C51.619 45.8225 51.0763 44.8135 49.3606 44.1197C48.9865 43.969 48.5388 44.0982 48.1678 43.7428C50.302 42.9676 51.1943 41.5078 51.1253 39.3004C51.0748 37.6837 50.4124 36.5316 49.1322 35.6425C47.8964 34.7857 46.4429 34.7549 45.0568 34.6688C43.0223 34.5426 40.9739 34.6057 38.9332 34.6519C37.6161 34.6826 36.641 35.7778 36.6625 37.0992C36.7376 41.6308 36.6885 46.164 36.6901 50.6972C36.6901 51.9416 37.6468 52.9369 38.8718 52.943C41.2453 52.9538 43.6187 52.9261 45.9937 52.9523C46.771 52.96 47.4901 52.8031 48.2107 52.5293C50.6623 51.594 51.846 49.9881 51.711 47.5238ZM41.7574 39.3742C42.2925 39.3866 42.8275 39.3773 43.5114 39.3773C44.048 39.4035 44.7425 39.3066 45.4141 39.5019C46.0734 39.6957 46.5456 40.0357 46.5349 40.8386C46.5226 41.6431 46.101 42.0892 45.3911 42.2554C44.163 42.543 42.9073 42.4276 41.6608 42.4353C41.3388 42.4369 41.302 42.2261 41.3035 41.9723C41.3066 41.2555 41.3127 40.5402 41.3005 39.8249C41.2959 39.4942 41.4384 39.3681 41.7574 39.3742ZM45.7437 48.1899C45.0691 48.3914 44.3822 48.296 43.7015 48.3176C43.6494 48.3176 43.5972 48.3222 43.5451 48.3253H43.5359C43.5114 48.3253 43.4853 48.3283 43.4608 48.3299C43.3565 48.3206 43.2476 48.3206 43.1357 48.3268C43.0775 48.3299 43.0177 48.3345 42.9594 48.3391C42.8996 48.3437 42.8398 48.3499 42.7815 48.356C42.711 48.3637 42.6405 48.3714 42.5715 48.3776C42.1315 48.4222 41.7144 48.4422 41.4599 48.196C40.9938 47.7407 41.3327 46.8347 41.3112 46.1286C41.2805 45.1303 41.3035 45.1149 42.2817 45.1319C43.3764 45.1519 44.4758 45.0457 45.5689 45.2272C46.4705 45.3764 46.9366 45.7825 46.9688 46.4732C47.0148 47.5315 46.7511 47.8884 45.7437 48.1899Z" fill="#9C5BF5"/>
<path id="Vector_3" d="M31.3265 6.91748C31.0843 6.67598 30.6473 6.67905 30.356 6.94363C29.4038 7.80966 28.3352 7.37588 27.288 7.26974C27.0228 7.24205 26.9492 7.059 27.0534 6.92363C27.6222 6.18989 27.3877 5.32541 27.5165 4.51783C27.6544 3.65488 27.4781 2.97652 26.8526 2.37814C26.6885 2.22124 26.273 1.97666 26.4723 1.82284C26.8986 1.49365 26.4555 1.44904 26.3788 1.3106C26.227 1.0368 25.8774 1.13832 25.6582 0.978344C25.6061 1.39213 25.7011 1.71977 26.0154 2.04588C26.4018 2.44736 26.7268 2.93191 26.5781 3.56258C27.4275 4.65166 27.1193 5.79457 26.6532 6.89595C26.5122 7.22974 26.0906 7.31896 25.6613 7.20821C25.1108 7.06823 24.7122 6.76058 24.4975 6.27142C24.4531 6.17144 24.7904 5.90071 24.9483 5.7115C24.4945 5.50999 24.3733 5.80995 23.8153 5.58075C23.1483 5.30848 23.0824 5.78995 22.7359 5.92224C22.3449 6.07145 22.5243 5.57921 22.3035 5.41155C22.2606 6.13144 21.0555 5.973 21.3238 6.8698C21.0539 6.96517 21.0953 6.56061 20.8577 6.66983C20.8408 6.70367 20.8009 6.74674 20.8071 6.78058C20.9665 7.61738 21.3989 8.32958 21.8389 9.03717C22.3403 9.84783 22.5933 10.6739 22.7067 11.6722C22.8417 12.8351 22.8018 14.0118 22.9873 15.1809C23.2449 16.8022 22.8217 18.3558 21.3514 19.4018C21.31 19.551 21.1766 19.5495 21.0631 19.5818C19.8764 20.5924 17.3987 19.9325 16.741 18.4927C16.4389 17.8344 16.2488 17.1652 16.4558 16.4207C16.7609 15.324 16.465 14.1026 17.1595 13.0735C17.3159 12.8428 17.4616 12.4244 17.3573 12.2275C16.8238 11.2138 17.414 10.3631 17.6916 9.4848C17.8418 9.01102 17.8249 8.57263 17.7652 8.10346C17.1227 9.27099 16.606 10.4693 16.5999 11.8383C16.5999 12.3152 16.7164 12.8043 16.5064 13.2735C15.7842 14.8917 15.4699 16.5638 15.8502 18.3281C16.4987 19.7033 18.1071 20.7647 19.5115 20.6278C21.1014 20.4724 22.5427 19.7602 23.0793 18.1758C23.0839 18.1512 23.0824 18.1235 23.0931 18.1005C23.1023 18.0836 23.1222 18.0636 23.1406 18.0589C23.4258 17.9851 23.3032 18.3343 23.4749 18.3804C23.8888 18.4927 23.3369 19.7172 24.3534 19.1542C24.3549 19.1542 24.4331 19.328 24.4975 19.3987C24.6171 19.5295 24.5665 19.8202 24.8594 19.7925C24.8824 19.5664 24.9038 19.3434 24.9238 19.1603C25.2488 18.9942 25.3515 19.5926 25.5907 19.3357C25.8268 19.0834 25.5003 18.8942 25.3439 18.7112C24.8103 18.0882 25.5493 18.2497 25.8146 18.1097C25.3495 17.88 25.0602 17.5647 24.9468 17.1637C27.127 17.5559 29.1049 21.9461 28.8412 24.9764C28.6388 25.1656 28.2769 24.5057 28.3076 24.9826C28.3597 25.7747 27.8998 26.2993 27.6575 26.9377C28.0669 27.8406 27.6146 28.6389 27.3355 29.4465C26.7437 31.1663 25.6275 32.403 23.9134 33.066C23.7371 33.1337 23.5822 33.166 23.4687 33.0875C24.2139 31.7446 26.0093 31.1309 26.017 29.2727C25.8406 30.1449 24.9958 30.5079 24.4592 30.9924C24.0054 31.4032 23.665 31.9077 23.2204 32.3153C22.5427 32.9352 21.7883 33.369 20.8791 33.4521C18.9565 33.6274 17.0353 33.7459 15.3335 32.5445C15.1909 32.443 15.0299 32.3553 14.9149 32.2277C14.596 31.8723 14.3062 31.4831 13.6883 31.5985C14.0042 32.1661 14.4565 32.5861 14.9778 32.9445C15.1004 33.0291 15.2675 33.1137 15.1893 33.2983C15.1111 33.4767 14.921 33.4075 14.7846 33.3983C11.2413 33.1737 8.40023 30.8678 7.59069 27.1976C7.39444 26.3085 7.06019 25.4071 7.45117 24.4795C7.45577 24.3688 7.4619 24.258 7.4665 24.1473C7.4619 24.0627 7.4573 23.9781 7.4527 23.895C7.47263 23.8243 7.49103 23.7535 7.50943 23.6827C7.56462 23.4705 7.61829 23.2582 7.68422 23.0474C7.72408 22.9198 7.77161 22.7736 7.66735 22.6937C7.4987 22.5644 7.39137 22.7336 7.29784 22.8429C7.22118 22.9305 7.21352 23.0921 7.02493 23.0459C7.19818 21.2062 7.68728 19.5264 9.40142 18.4066C8.95372 18.2804 8.91386 18.1051 9.24964 17.7805C10.0806 16.9806 11.1278 16.4884 12.0079 15.7516C12.7592 15.124 13.6362 15.3332 14.3123 16.1008C14.4519 16.2607 14.4319 16.5592 14.7018 16.5868C14.9517 16.3223 14.5101 16.1315 14.6435 15.8777C14.5193 15.5778 14.4059 15.2717 14.2694 14.9779C14.1897 14.8056 13.1103 14.2057 12.8849 14.2287C12.7454 14.2441 12.776 14.1395 12.7745 14.1134C12.7347 13.2889 11.7319 12.6505 12.3053 11.7014C12.3498 11.6276 12.3237 11.4984 12.3053 11.3984C12.126 10.3216 12.2348 10.1201 13.2299 9.70631C13.1992 9.46173 13.3694 9.32482 13.5319 9.21407C14.3936 8.62185 15.0437 7.84042 15.6232 6.97747C16.5186 5.64382 17.1089 4.15327 17.8602 2.74578C18.0733 2.34738 18.2052 1.73823 18.7296 1.70747C19.1865 1.67978 19.4118 1.45212 19.6771 1.18447C19.7813 1.07987 19.8733 0.949117 20.0543 0.959885C21.0202 1.01065 21.9539 0.724535 22.906 0.66762C23.3859 0.638393 23.8704 0.569172 24.3703 0.878358C24.611 1.02757 25.12 1.31522 25.5233 0.95527C25.3255 0.656852 24.9161 0.747608 24.6984 0.521487C24.3442 0.156925 24.3611 0.14308 23.7754 0.287675C23.6543 0.31844 23.4549 0.379969 23.4151 0.330746C22.9352 -0.28455 22.3587 0.172307 21.8543 0.218454C21.402 0.258448 20.9834 0.52764 20.5894 0.0554009C20.5188 -0.0292022 20.2168 -0.00920511 20.0773 0.0661686C19.2524 0.516872 18.3907 0.932197 17.8357 1.73977C17.2009 2.66118 16.7594 3.68718 16.3009 4.70088C15.5926 6.26988 14.5791 7.56969 13.2084 8.62339C12.5599 9.12332 12.0064 9.73246 11.6767 10.5554C11.1493 11.8798 11.4989 13.0566 12.106 14.198C12.3498 14.6548 12.2379 14.8379 11.8699 15.0978C10.1665 16.2961 8.51522 17.4929 7.40977 19.3926C6.50363 20.9478 6.0176 22.5629 6.20006 24.255C6.46837 26.73 7.4113 29.0158 8.95372 31.0124C9.07025 31.1632 9.2803 31.2539 9.2205 31.517C9.01659 32.4292 8.79733 33.3336 8.3987 34.1889C7.34997 36.447 5.30159 37.7745 3.58591 39.4081C2.56172 40.3834 1.67705 41.4509 1.13429 42.7523C0.418273 44.4643 0.605327 46.2933 1.0423 47.9731C1.39034 49.3144 1.26001 50.2558 0.341612 51.2218C-0.0186951 51.6002 -0.093823 52.2109 0.111629 52.7108C0.298682 53.1646 0.795446 52.937 1.14962 52.9385C5.87041 52.9539 10.5912 52.9539 15.312 52.9431C15.5343 52.9431 15.8732 53.12 15.9744 52.7862C16.0725 52.4632 15.7796 52.3078 15.5389 52.1678C15.4699 52.3063 15.5849 52.6801 15.3948 52.577C14.7232 52.2186 14.1038 52.9508 13.4583 52.5432C13.6852 52.2371 13.9428 51.891 13.8631 51.4372C14.4488 51.3772 14.6389 52.1525 15.2246 52.0079C14.8658 51.3664 14.1759 51.2387 13.6009 50.9172C13.1839 50.6834 12.3636 50.8003 12.3805 50.3143C12.4004 49.6913 11.7534 49.4698 11.8438 48.8775C12.057 47.4962 12.4541 46.2379 13.4982 45.2258C15.105 43.6721 16.8376 42.1693 16.764 39.622C16.7578 39.3958 16.9157 39.4082 17.0752 39.4005C17.3144 39.3897 17.4018 39.5081 17.3711 39.725C17.3282 40.0204 17.2163 40.3157 17.2301 40.608C17.2791 41.7816 17.0185 42.923 16.905 44.0782C16.8314 44.8181 16.7502 45.5657 15.7505 45.7042C15.4224 45.7503 15.1602 46.061 15.0682 46.4302C15.013 46.6533 14.8873 46.7471 14.6512 46.7902C13.5733 46.9809 13.1793 47.7562 13.7312 48.6837C13.9122 48.9852 13.8416 49.1421 13.7619 49.4328C13.6347 49.8974 13.4783 50.4835 14.1146 50.765C14.5898 50.9742 15.1663 50.9619 15.473 51.5125C15.5328 51.6202 15.8548 51.6202 15.9682 51.4895C16.6566 50.6896 16.7103 51.3541 16.9326 51.8525C17.1227 52.2786 17.1887 52.9108 17.828 52.9293C19.0914 52.9631 20.3563 52.9385 21.773 52.9385C21.3529 52.4647 21.1965 51.9771 20.7611 51.7002C20.7335 51.2726 20.2566 51.0695 20.2137 50.6942C21.06 50.2604 21.5476 51.2972 22.348 51.1634C22.4461 51.148 22.6638 51.814 22.8141 52.1694C22.9137 52.4063 23.0563 52.6016 23.2648 52.7478C23.3016 52.7001 23.3384 52.6508 23.3737 52.6032C23.1621 52.0817 22.9505 51.5587 22.7205 50.9895C23.2602 50.9142 23.8658 51.4679 24.2844 50.7942C24.24 50.7511 24.197 50.7096 24.1526 50.6681C23.7171 51.1141 23.251 50.8296 22.9796 50.5511C22.7098 50.2743 22.6239 50.3081 22.417 50.5373C22.1456 50.8357 21.8635 51.1049 21.6059 50.5142C21.4817 50.2327 21.2164 50.3312 21.0003 50.3204C20.1386 50.2804 19.8994 49.8759 20.364 49.1698C20.5572 48.8791 20.7105 48.6637 20.3241 48.4284C19.9653 48.2084 19.8902 47.8362 20.0236 47.4962C20.1876 47.0809 20.6246 46.9455 21.0125 47.027C21.382 47.104 21.4265 46.9778 21.5047 46.6825C21.7086 45.9087 22.3817 45.5811 23.0716 45.9595C23.3354 46.1041 23.4289 46.1349 23.6849 45.941C24.2706 45.4965 24.8808 45.7119 25.4374 46.058C25.8606 46.3195 25.58 46.6825 25.4987 47.0255C25.8606 47.167 26.2515 47.0286 26.5996 47.2393C27.1945 47.5993 27.3049 48.1669 26.7314 48.5161C26.2423 48.8129 25.9403 49.0391 26.2285 49.6682C26.3221 49.8682 26.1503 50.1927 26.0982 50.4604C26.1304 50.5065 26.1626 50.5527 26.1933 50.5988C26.503 50.3604 26.6425 49.9174 26.5383 49.6759C26.3144 49.1637 26.6701 49.0191 26.9216 48.8299C27.7357 48.2223 27.6468 47.1332 26.5015 46.8163C26.2592 46.7486 25.971 46.7625 25.9618 46.4087C25.9434 45.658 25.2871 45.4842 24.821 45.4442C24.2262 45.3934 24.2768 45.1289 24.2676 44.7289C24.2016 41.697 24.427 38.6775 24.5589 35.6518C24.5895 34.9426 24.8057 34.252 24.7321 33.5382C24.7137 33.3598 24.8149 33.306 24.9621 33.2152C26.5567 32.2323 27.6391 30.8602 28.1083 29.0189C28.3459 28.0883 28.6158 27.1699 29.0006 26.2793C29.272 25.6486 29.3793 24.921 29.3165 24.2227C29.1769 22.6629 28.8764 21.1262 28.2371 19.6879C28.0791 19.3326 28.1803 19.1788 28.3628 18.8973C29.1877 17.6236 29.9067 15.2409 28.51 13.7073C28.0899 13.2458 27.7326 12.6951 27.4536 12.0983C26.7498 10.5877 26.7498 10.5523 28.3168 10.1816C29.5756 9.88321 30.5538 9.151 31.2866 8.105C31.535 7.75121 31.6715 7.26051 31.3265 6.91748ZM10.4685 51.834C10.4103 52.377 10.0515 52.6201 9.52715 52.6232C9.17297 52.6262 8.8188 52.6262 8.46463 52.6262C8.00313 52.6262 7.53856 52.6262 7.07553 52.6262C6.89154 52.6262 6.70755 52.6247 6.52357 52.6232C6.49443 52.6247 6.4653 52.6232 6.43771 52.6232C6.33651 52.6216 6.23532 52.6201 6.13259 52.6201C5.97927 52.6185 5.82595 52.617 5.67263 52.617C5.37365 52.617 5.0762 52.6216 4.77723 52.6355C4.12867 52.6647 3.76683 52.2678 3.77296 51.7541C3.7791 51.311 4.06734 50.8203 4.72816 50.9326C5.05781 50.988 5.23413 50.9265 5.29699 50.4804C5.39358 49.8051 6.34725 49.4498 6.96667 49.8359C7.27791 50.0312 7.33617 50.0158 7.4941 49.7005C7.73635 49.2144 8.13192 49.4159 8.46463 49.6067C8.77587 49.7851 9.26957 49.9282 9.04112 50.4235C8.7636 51.0203 9.14078 50.9372 9.47655 50.9357C10.0837 50.9326 10.5483 51.1034 10.4685 51.8356V51.834ZM11.8162 50.8434C12.1689 51.0018 12.497 50.9111 12.8113 50.9372C13.3019 50.9772 13.4323 51.3849 13.4599 51.7325C13.4921 52.1278 13.164 52.4678 12.8251 52.5785C12.4617 52.6985 12.4847 52.0802 12.1382 52.0248L12.1352 52.0279C12.1352 52.0279 12.1505 52.0386 12.1582 52.0448C12.1413 52.0694 12.126 52.0909 12.1106 52.1078C12.0861 52.1386 12.0616 52.1601 12.037 52.1725C12.0309 52.1771 12.0248 52.1801 12.0186 52.1817C12.014 52.1863 12.0079 52.1878 12.0018 52.1894H12.0002C11.9987 52.2032 11.9987 52.2155 12.0002 52.2278C12.0018 52.2309 12.0018 52.2355 12.0033 52.2386C12.0064 52.2524 12.014 52.2663 12.0232 52.2801C12.0278 52.2878 12.0324 52.294 12.0386 52.3001C12.0646 52.334 12.103 52.3632 12.1336 52.394C12.1398 52.3986 12.1459 52.4032 12.1505 52.4109C12.1566 52.414 12.1612 52.4201 12.1658 52.4263C12.1781 52.4416 12.1888 52.4586 12.1934 52.4739C12.195 52.4801 12.1965 52.4863 12.1965 52.4939C12.1965 52.5216 12.1796 52.5493 12.1382 52.5801C11.9251 52.7385 11.7979 52.457 11.6461 52.3417C11.6031 52.3955 11.5602 52.4509 11.5173 52.5047C11.2214 52.7308 10.9009 52.6032 10.5513 52.6001C10.7108 52.2524 10.8089 51.9294 10.812 51.5541C11.1631 51.6095 11.367 51.8387 11.62 51.9756C11.7243 52.0309 11.8408 52.2186 11.9803 52.1955C11.9864 52.1924 11.9941 52.1909 12.0002 52.1894C12.0018 52.1848 12.0033 52.1801 12.0048 52.1755C12.0248 52.1186 12.0892 52.0771 12.1352 52.0279C11.8392 51.811 11.551 51.5772 11.252 51.3633C11.203 51.3264 11.1524 51.2926 11.1018 51.2572C11.0512 51.2234 11.0006 51.1895 10.95 51.1557C10.9239 51.1372 10.8978 51.1218 10.8703 51.1049C10.8442 51.088 10.8166 51.0711 10.7905 51.0557C10.7599 51.0357 10.7277 51.0172 10.6955 51.0003C10.6587 50.9788 10.6219 50.9588 10.5851 50.9403C10.5421 50.9172 10.4992 50.8942 10.4547 50.8742C10.4057 50.8511 10.3566 50.828 10.3076 50.808C10.2815 50.7973 10.2554 50.7865 10.2294 50.7757C10.1926 50.7603 10.1558 50.7465 10.1174 50.7342C10.1128 50.7327 10.1082 50.7311 10.1036 50.7296C9.99325 50.6911 9.87979 50.6588 9.76327 50.6342C9.2619 50.5281 9.51642 50.0851 9.3263 49.8559C9.2435 49.7574 9.23584 49.6436 9.33396 49.6021C9.60841 49.4882 9.80466 49.6959 10.0147 49.822C10.0975 49.8728 10.1665 49.9451 10.2846 50.0435C10.5299 49.2498 11.068 49.3329 11.6108 49.5897C12.1965 49.8651 12.0861 50.3419 11.8162 50.8434ZM16.3009 40.1988C16.1476 41.4479 15.5374 42.5077 14.6374 43.4291C13.6117 44.4782 12.4418 45.415 11.899 46.8532C11.7488 47.2501 11.6675 47.6946 11.5004 48.05C11.344 48.3868 11.7825 49.1375 10.9132 49.0929C10.49 49.0714 10.1343 49.6297 9.65287 49.2806C9.3447 49.0575 9.06412 49.5328 8.73754 49.2898C8.53515 49.139 8.3297 49.1883 8.40483 48.7345C8.7958 46.3502 10.4639 45.0319 12.2823 43.8183C13.236 43.1814 14.2924 42.6477 14.5607 41.3786C14.6542 40.9387 14.7386 40.4895 14.76 40.0419C14.8076 39.0605 15.5174 39.6912 15.8992 39.5758C16.4037 39.422 16.2841 39.8696 16.3009 40.1988ZM16.813 50.8357C16.4282 50.305 16.304 50.6911 16.1108 50.9003C15.8302 51.2003 15.591 51.431 15.4147 50.8265C15.3181 50.4973 15.0376 50.6419 14.8352 50.6311C13.9781 50.585 13.7128 50.1235 14.1697 49.4021C14.366 49.0914 14.6343 48.9022 14.1054 48.5899C13.7481 48.3776 13.8156 47.8915 13.9643 47.4685C14.1207 47.0317 14.4427 47.0778 14.7677 47.0932C15.1265 47.1086 15.3396 47.0963 15.404 46.5994C15.496 45.8811 16.4052 45.5734 17.0338 45.9595C17.066 45.9795 17.0951 45.998 17.1212 46.0133C17.1411 46.0241 17.1595 46.0349 17.1764 46.0441C17.1917 46.0533 17.2071 46.061 17.2224 46.0672C17.2316 46.0718 17.2408 46.0749 17.25 46.0779C17.2577 46.081 17.2638 46.0826 17.2699 46.0841C17.2791 46.0856 17.2883 46.0872 17.2975 46.0872C17.3052 46.0872 17.3129 46.0856 17.3205 46.0841C17.3282 46.0826 17.3359 46.0795 17.342 46.0749C17.3497 46.0703 17.3573 46.0641 17.3634 46.058C17.3696 46.0518 17.3757 46.0456 17.3818 46.038C17.3834 46.0364 17.3849 46.0349 17.3849 46.0333C17.391 46.0257 17.3972 46.0164 17.4018 46.0072C17.4355 45.9487 17.4723 45.8549 17.5244 45.7165H17.5152C17.5152 45.7165 17.5244 45.7042 17.529 45.6995C16.8192 45.4534 17.2193 44.8551 17.2592 44.4997C17.437 42.8938 17.7774 41.3063 17.9675 39.7004C18.0488 39.0021 18.5824 39.2389 18.9028 39.1251C19.1819 39.0267 19.5222 38.9882 19.7599 39.5174C20.295 40.7018 19.9822 41.8016 19.7415 42.9399C19.6066 43.5722 19.4042 44.2075 19.3904 44.8458C19.3781 45.4719 19.0469 45.4657 18.6713 45.3442C18.5364 45.2996 18.4106 45.2781 18.2956 45.2781C18.2711 45.2781 18.2466 45.2796 18.2236 45.2811C18.1975 45.2827 18.1715 45.2873 18.1469 45.2919C18.1209 45.295 18.0963 45.3011 18.0718 45.3073C18.0227 45.3211 17.9752 45.3396 17.9277 45.3627C17.92 45.3673 17.9093 45.3704 17.9016 45.375C17.8786 45.3873 17.8556 45.4011 17.8326 45.4165C17.8173 45.4257 17.802 45.4365 17.7882 45.4473C17.7682 45.4611 17.7498 45.475 17.7314 45.4903C17.7268 45.4934 17.7222 45.498 17.7192 45.5011C17.6977 45.5196 17.6762 45.5396 17.6548 45.5611C17.6425 45.5719 17.6318 45.5826 17.621 45.5949C17.5904 45.6272 17.5597 45.6626 17.529 45.6995H17.5306C17.5306 45.6995 17.526 45.7119 17.5244 45.7165C17.9384 45.7134 18.3524 45.7211 18.7663 45.7026C19.0761 45.6888 19.4379 45.7995 19.4594 46.0487C19.5054 46.5656 19.5943 47.0717 19.674 47.5808C19.6863 47.6546 19.6434 47.7531 19.6771 47.8069C20.1309 48.5268 19.812 49.3021 19.8871 50.0405C19.9515 50.6757 19.6142 50.645 19.2815 50.8265C18.8123 51.0849 18.6422 50.7865 18.4628 50.4681C18.4183 50.3881 18.4306 50.2773 18.4183 50.1912C18.1209 50.1297 18.1071 50.385 18.0473 50.5112C17.7544 51.1157 17.1733 51.3326 16.813 50.8357ZM20.7534 51.6956C20.4682 52.0925 21.0769 52.1878 21.0141 52.5816C20.019 52.5801 19.0163 52.8093 17.9997 52.6585C17.391 52.5678 17.4278 51.9786 17.2423 51.5664C17.6548 51.3956 18.0641 51.2157 18.4842 51.0634C18.5348 51.0449 18.6529 51.2326 18.7173 51.2203C19.4732 51.0649 20.1677 51.1403 20.7534 51.6956ZM21.1766 46.5563C20.8101 46.6086 20.4023 46.9409 20.1064 46.7471C19.6311 46.4364 19.6096 45.7795 19.7123 45.3196C19.9347 44.3197 20.1079 43.2907 20.6062 42.1877C20.9926 43.3168 21.2916 44.3074 21.6733 45.2658C21.9263 45.9026 21.0922 46.0349 21.1766 46.5563ZM24.1081 34.2381C23.7141 36.8208 23.8628 39.4251 23.7846 42.0185C23.7923 43.0661 23.7999 44.1136 23.8107 45.1612C23.8153 45.6057 23.7018 45.6995 23.1851 45.678C22.2253 45.6396 22.0643 45.0658 21.8696 44.329C21.4265 42.6584 20.9374 40.9971 20.4084 39.3512C20.2612 38.8928 20.3134 38.7667 20.7672 38.6067C21.635 38.2975 22.4078 37.713 22.5841 36.3917C21.2272 38.4714 19.1236 38.6652 17.0553 38.9436C16.836 38.9728 16.6229 39.0774 16.4037 39.0867C15.8946 39.1082 15.3503 39.2051 14.8842 39.062C14.3599 38.9005 14.5515 38.2222 14.3154 37.8145C14.0548 37.3654 13.8294 36.8947 13.4691 36.4809C13.2544 36.7824 13.6086 36.9962 13.5488 37.2531C13.699 37.3069 13.6929 37.4269 13.6714 37.5515C13.6975 37.5961 13.7052 37.6438 13.6975 37.6946C14.1789 39.1036 14.4273 40.5034 13.7205 41.9324C13.2912 42.8 12.3989 43.0307 11.7074 43.5291C10.2493 44.5782 8.8648 45.6703 8.18558 47.4224C8.04299 47.7915 7.85747 48.1607 7.88813 48.5484C7.9188 48.9529 7.73175 49.1298 7.42203 49.2667C7.30398 49.5559 7.02493 49.4621 6.90841 49.3729C6.5481 49.0975 6.21845 49.2821 5.91181 49.4036C5.41045 49.6051 5.17893 50.0528 4.88302 50.4958C4.67757 50.8019 3.90329 50.6434 3.57825 51.1541C3.49238 51.288 3.38966 51.4018 3.42646 51.5602C3.61044 52.354 3.12594 52.357 2.56938 52.3232C2.13702 52.297 1.70005 52.2955 1.26768 52.3247C0.729518 52.3601 0.737184 52.0755 0.887439 51.7156C1.15882 51.0634 1.64485 50.5465 2.02356 49.962C2.10175 49.842 2.26734 49.7743 2.14775 49.5821C1.54059 48.6022 1.65712 47.4593 1.4164 46.3964C1.08523 44.9289 1.25388 43.5552 2.05729 42.3354C3.02935 40.8602 4.13327 39.4758 5.56377 38.3883C7.67195 36.787 9.07331 34.7211 9.57008 32.0815C9.58234 32.0154 9.61301 31.9508 9.65594 31.8277C10.7752 32.7014 11.9512 33.3844 13.3387 33.6259C13.4813 33.6505 13.6255 33.7167 13.7757 33.7105C16.3929 33.5998 18.981 34.1551 21.6028 34.0397C22.3618 34.0074 23.0594 33.6582 23.8214 33.732C24.3105 33.6705 24.1342 34.0628 24.1081 34.2381ZM28.4103 14.3103C28.7062 14.581 28.8396 14.9855 28.6342 15.4239C28.513 15.6824 28.5376 15.9454 28.6556 16.2269C28.7231 16.3853 28.9837 16.8099 28.3873 16.6684C28.2432 16.6345 28.2509 16.8237 28.3214 16.9483C28.4594 17.1868 28.4027 17.4421 28.3751 17.8005C28.234 17.5898 28.142 17.4513 27.9626 17.1821C27.9718 17.7974 27.8737 18.2681 27.6866 18.8511C26.9292 17.7528 25.9664 16.9822 24.9345 16.2654C24.4377 15.9193 24.6846 15.164 24.6248 14.6241C24.5052 13.5227 25.0403 11.583 26.4739 10.8169C26.9645 12.0675 27.3708 13.3581 28.4103 14.3103ZM27.2972 9.83706C26.9246 9.94781 26.4279 9.60325 26.1825 9.20946C26.1136 9.09716 26.1902 8.90027 25.9526 8.9618C25.7425 9.0141 25.5999 9.18638 25.5202 9.36482C25.4466 9.52941 25.626 9.69092 25.7486 9.69862C26.0645 9.71707 26.2393 9.88167 26.3911 10.137C24.5297 11.3445 24.0759 13.0535 24.381 15.1686C24.519 16.1315 24.5849 17.1314 24.6156 18.122C24.6294 18.5635 24.3166 18.3204 24.263 18.3066C23.7708 18.1805 23.4488 17.3883 23.4718 16.8407C23.527 15.4193 23.5101 14.0011 23.4381 12.572C23.3476 10.7862 22.4767 9.40635 21.6795 7.9481C21.4664 7.56046 21.9156 6.48677 22.3986 6.37141C22.8524 6.26527 23.3154 6.10991 23.7999 6.18682C23.9164 6.20682 24.0652 6.16221 24.1004 6.3391C24.3365 7.51124 25.3653 7.4051 26.1672 7.5497C27.2497 7.74659 28.3459 7.96041 29.4575 7.86965C29.7964 7.84196 29.8991 8.19576 30.2579 8.22037C29.4606 9.18177 28.3628 9.52172 27.2972 9.83706Z" fill="#030303"/>
<path id="Vector_4" d="M50.5124 18.1973C49.7366 15.2701 47.4168 13.9933 44.5436 13.8749C42.6838 13.7964 40.8178 13.8503 38.955 13.8626C37.5245 13.8734 36.6919 14.7179 36.6904 16.1376C36.6873 18.4419 36.6889 20.7462 36.6889 23.0505C36.6889 25.3548 36.6843 27.8129 36.6919 30.1941C36.695 31.2247 37.5751 32.3338 38.4751 32.4768C39.5269 32.6445 40.7979 31.8815 41.1337 30.8894C41.4633 29.9172 41.2901 28.9143 41.2839 27.9282C41.2793 27.2776 41.4112 26.9945 42.1211 27.0591C42.8294 27.1253 43.55 27.0945 44.2645 27.0699C46.2178 27.0053 47.9535 26.4131 49.2705 24.881C50.9739 22.8982 51.1441 20.5832 50.5124 18.1973ZM44.6325 22.486C43.6942 22.6659 42.7512 22.5675 41.8098 22.6075C41.3928 22.6244 41.2839 22.4321 41.2993 22.0537C41.3192 21.543 41.3039 21.0308 41.3039 20.5185C41.3039 19.1905 41.9616 18.526 43.2771 18.525C43.7356 18.525 44.1909 18.5373 44.6463 18.6219C45.8422 18.8403 46.3436 19.3818 46.3466 20.497C46.3482 21.6199 45.7763 22.2675 44.6325 22.486Z" fill="#9C5BF5"/>
<path id="Vector_5" d="M66.6036 27.0684C66.2955 25.8701 65.259 25.2364 64.1214 25.7071C63.6875 25.887 63.3272 26.1793 63.0021 26.4993C62.234 27.2576 61.3278 27.7329 60.2806 27.9575C59.2902 28.1698 58.4193 27.9221 57.6604 27.2638C57.4702 27.0992 57.2249 26.8869 57.2801 26.6362C57.3414 26.3562 57.6818 26.3962 57.9179 26.3439C59.9709 25.8793 62.03 25.4471 64.0738 24.9487C65.883 24.5088 66.3231 23.672 65.8248 21.8199C65.0551 18.9588 63.2398 17.719 60.1104 17.719C59.4527 17.7359 58.8011 17.7713 58.1433 17.8482C54.7948 18.2405 52.2082 21.2862 52.2971 24.4349C52.3339 25.704 52.5946 26.8731 52.9825 28.0606C53.7307 30.3418 55.2869 31.8277 57.5484 32.2876C60.6225 32.9137 63.4038 32.0077 65.7098 29.868C66.4764 29.1573 66.9072 28.2421 66.6036 27.0684ZM56.6684 23.6058C57.0057 22.3691 58.338 21.5415 59.6121 21.7246C60.3742 21.6077 61.0105 21.9045 61.4919 22.5598C61.7173 22.8644 61.7725 23.1167 61.3048 23.2259C59.9173 23.552 58.5282 23.8704 57.1421 24.2073C56.515 24.3596 56.5687 23.9735 56.6684 23.6058Z" fill="#9C5BF5"/>
<path id="Vector_6" d="M66.698 43.0645C66.0771 40.7602 64.6604 39.1666 62.3191 38.4867C60.5283 37.9653 58.7498 38.0976 57.005 38.6544C55.4687 39.1466 54.2942 40.1234 53.5721 41.5878C52.5816 43.5968 52.4574 45.7057 53.0539 47.83C54.0397 51.351 56.085 52.8954 59.6774 52.9477C62.9309 53.1631 65.5987 51.1695 66.399 48.9314C67.0859 47.0086 67.2285 45.0381 66.698 43.0645ZM59.9089 48.4884C57.7409 48.5745 56.8961 47.0363 56.916 45.6272C56.9436 43.5214 57.698 42.7876 59.935 42.7846C62.2057 42.7815 62.7515 43.4045 62.753 45.9949C62.7546 47.5685 61.7166 48.4161 59.9089 48.4884Z" fill="#9C5BF5"/>
<path id="Vector_7" d="M81.9261 43.2261C81.923 45.6334 81.923 48.0423 81.9261 50.4496C81.9276 51.7679 81.23 52.7754 79.8317 52.9846C78.7999 53.14 77.4767 52.134 77.4675 51.088C77.4476 49.0129 77.4552 46.9378 77.4491 44.8627C77.4445 43.5275 76.8879 42.8107 75.8423 42.7846C74.2247 42.7446 73.2312 43.4876 73.2021 44.8504C73.1607 46.7209 73.1806 48.5914 73.1913 50.4619C73.1975 51.6018 72.7053 52.3524 71.6443 52.82C70.6876 53.2415 69.9777 52.8231 69.2939 52.2955C68.883 51.9786 68.7189 51.4895 68.722 50.9449C68.7343 49.099 68.6929 47.2547 68.7373 45.4103C68.7757 43.7752 68.4629 42.1677 68.4276 40.5434C68.3985 39.2051 69.1222 38.3483 70.2184 38.3252C71.8958 38.2898 72.5964 38.9267 72.7298 40.4695C72.7835 41.0817 72.4998 41.737 72.9874 42.3954C73.2312 41.1648 73.5608 40.0634 74.4946 39.2466C76.5368 37.4607 80.8896 37.8376 81.6547 41.1156C81.8157 41.8047 81.9276 42.5092 81.9261 43.2261Z" fill="#9C5BF5"/>
<path id="Vector_8" d="M93.6999 29.4496C92.8735 31.1816 91.3265 32.02 89.5004 32.3076C88.6786 32.4384 87.8323 32.546 87.219 32.4676C85.2013 32.4168 83.4795 32.1846 82.0045 31.0247C80.9481 30.1956 80.7779 28.3267 81.7163 27.3791C82.2759 26.8146 83.2664 26.7207 84.0115 27.2914C85.4711 28.4113 87.0933 28.6005 88.8396 28.3513C89.1371 28.3097 89.3579 28.1621 89.6047 28.0452C89.9343 27.8883 89.9558 27.5468 89.9681 27.2622C89.9819 26.9715 89.6952 26.853 89.4514 26.773C88.6909 26.5223 87.9028 26.4915 87.1102 26.4777C86.1504 26.4608 85.1936 26.3531 84.2645 26.1131C81.9892 25.5271 81.0938 23.3443 81.52 21.2877C81.9662 19.1326 83.6129 18.3081 85.534 17.8851C87.3141 17.4928 89.0941 17.6959 90.8528 18.0497C91.8187 18.245 92.6988 18.6634 93.3458 19.4418C93.9775 20.2017 94.0526 21.0569 93.6401 21.9491C93.3074 22.6706 92.5086 23.1074 91.7328 23.1151C91.3112 23.1197 91.0812 22.8459 90.8114 22.6459C89.3855 21.5861 87.8154 21.6615 86.204 21.9999C85.8744 22.0691 85.6337 22.2383 85.5984 22.5921C85.557 23.0013 85.8483 23.1828 86.1657 23.3105C87.0243 23.6596 87.9458 23.6381 88.8442 23.7027C89.6538 23.7596 90.451 23.8596 91.2468 24.0104C94.1844 24.5687 94.7257 27.2991 93.6999 29.4496Z" fill="#9C5BF5"/>
<path id="Vector_9" d="M94.8098 51.2095C94.5737 51.9679 93.7319 52.6124 92.8519 52.6186C90.3742 52.6385 87.8888 52.7478 85.4219 52.5847C83.6495 52.4678 82.9978 50.7188 83.6617 49.1514C83.7675 48.9006 83.9653 48.676 84.16 48.4761C85.8726 46.724 87.5929 44.9812 89.4144 43.1292C88.1464 43.1292 86.9781 43.143 85.8098 43.1245C84.2152 43.1015 83.4057 42.2631 83.4287 40.6972C83.4455 39.4928 84.3685 38.5037 85.5844 38.4868C87.7815 38.4575 89.9786 38.4637 92.1742 38.4914C92.6449 38.496 93.1248 38.6144 93.5801 38.7467C95.4583 39.2913 95.2897 41.937 94.129 43.0646C92.6265 44.5274 91.1469 46.0149 89.6628 47.4962C89.491 47.6685 89.2565 47.8008 89.1706 48.1669C90.3374 48.1669 91.472 48.1592 92.6081 48.1684C94.4081 48.1838 95.3464 49.4836 94.8098 51.2095Z" fill="#9C5BF5"/>
<path id="Vector_10" d="M78.6685 31.0308C76.9037 32.446 74.3356 33.0982 72.1507 31.84C70.9533 31.1524 70.1499 29.4634 70.202 28.0651C70.2633 26.3546 70.1744 24.6379 70.1668 22.9228C70.1637 22.5367 69.9782 22.4182 69.6439 22.4629C68.6765 22.5951 68.0708 21.8937 67.6615 21.283C67.387 20.8754 67.5296 20.0217 67.7535 19.4787C68.0678 18.7172 68.6657 18.0927 69.6317 18.1727C70.1422 18.2142 70.3293 18.0235 70.2633 17.5251C70.2128 17.1513 70.2097 16.7729 70.1668 16.3976C70.0901 15.7269 70.6635 15.3131 71.145 14.9993C71.9714 14.4625 72.902 14.464 73.7484 14.967C74.5916 15.4685 74.7189 16.3653 74.6898 17.2405C74.6576 18.1819 74.61 18.1804 75.5422 18.1804H75.9255C77.655 18.1773 78.1196 18.465 78.4952 19.7679C78.9092 21.2076 77.5692 22.5152 76.4913 22.4982C74.7066 22.4705 74.7051 22.5028 74.7066 24.2734C74.7066 25.0409 74.699 25.8101 74.7112 26.5776C74.7266 27.499 75.3812 27.9944 76.2613 27.7821C76.7765 27.6575 77.2855 27.5498 77.7807 27.3314C78.4968 27.0145 79.2082 27.3914 79.4688 28.1451C79.8675 29.2911 79.5731 30.3048 78.6685 31.0308Z" fill="#9C5BF5"/>
<path id="Vector_11" d="M27.3676 52.9446C26.0566 52.9446 24.8132 52.9446 23.5698 52.9461C23.421 52.9461 23.3459 52.8446 23.2646 52.7477C23.3014 52.7 23.3382 52.6508 23.3735 52.6031H25.658C25.612 52.1755 25.172 52.0755 25.0877 51.7402C25.8849 51.5402 25.865 52.8969 26.7297 52.5647C26.2207 51.5094 25.5783 50.6957 24.2842 50.7941C24.2398 50.7511 24.1968 50.7095 24.1524 50.668C24.3563 49.9604 24.456 49.9127 24.5311 50.0727C24.9067 50.8864 25.5154 50.5865 26.098 50.4603C26.1302 50.5065 26.1624 50.5526 26.1931 50.5988C26.0459 50.748 25.9999 50.8403 26.1486 51.0833C26.5181 51.6925 27.1207 52.1524 27.3676 52.9446Z" fill="#030303"/>
<path id="Vector_12" d="M15.5396 52.1678C15.4706 52.3063 15.5856 52.68 15.3954 52.577C14.7239 52.2186 14.1045 52.9508 13.459 52.5431C13.6859 52.237 13.9435 51.8909 13.8638 51.4372C14.4494 51.3772 14.6396 52.1524 15.2253 52.0078C15.3556 52.0109 15.4752 52.0325 15.5396 52.1678Z" fill="#D8C3F6"/>
<path id="Vector_13" d="M27.6579 26.9376C28.0673 27.8405 27.6135 28.6389 27.336 29.4465C26.7441 31.1662 25.6279 32.4014 23.9138 33.0644C23.7375 33.1321 23.5826 33.1644 23.4692 33.0859C24.2159 31.7431 26.0113 31.1293 26.0174 29.2711C25.8411 30.1433 24.9963 30.5063 24.4612 30.9924C24.0073 31.4031 23.6654 31.9061 23.2208 32.3137C22.5446 32.9337 21.7888 33.3674 20.8796 33.4505C18.9584 33.6259 17.0358 33.7428 15.3354 32.5429C15.1913 32.4414 15.0318 32.3537 14.9169 32.2245C14.5979 31.8707 14.3082 31.48 13.6903 31.5969C14.0061 32.1645 14.4584 32.5829 14.9797 32.9413C15.1024 33.026 15.271 33.1106 15.1913 33.2951C15.1146 33.4736 14.9245 33.4044 14.7881 33.3951C11.2448 33.1705 8.40373 30.8647 7.59418 27.1945C7.39793 26.3054 7.06369 25.404 7.45466 24.4764C7.87323 24.9456 8.29027 25.4147 8.75483 25.9362C8.8131 25.3378 8.48805 24.8641 8.49572 24.1595C9.47085 25.7055 10.2727 27.196 11.8412 28.1374C11.8274 27.5483 11.4778 27.1299 11.5514 26.6361L11.5545 26.633C12.4668 27.3252 13.1245 28.2989 14.1395 28.8881C14.9199 29.3419 15.7187 29.7018 16.6003 29.8864C16.7659 29.9218 16.9407 30.0695 17.0894 29.8787C17.2213 29.708 17.1048 29.5172 17.0373 29.3742C16.8886 29.0588 16.6847 28.7712 16.3796 28.2666C17.0496 28.6312 17.5847 28.6927 18.1136 28.9281C20.0762 29.7987 22.1 30.0741 24.0687 28.9112C24.6436 28.5712 25.3458 28.3605 25.6494 27.656C25.6816 27.5806 25.8564 27.4791 25.8886 27.5021C26.7303 28.0805 27.0998 27.2068 27.6625 26.9345L27.6579 26.9376Z" fill="#805FF8"/>
<path id="Vector_14" d="M26.5787 3.56102C27.4296 4.65163 27.1199 5.793 26.6553 6.89438C26.5143 7.22818 26.0927 7.3174 25.6618 7.20664C25.1129 7.06666 24.7143 6.75748 24.4996 6.26986C24.4552 6.16833 24.7925 5.89914 24.9504 5.70994C24.4966 5.50843 24.3754 5.80839 23.8174 5.57919C23.1504 5.30692 23.0845 5.78839 22.738 5.92068C22.347 6.06989 22.5264 5.57765 22.3041 5.40998C22.2611 6.12988 21.0576 5.97144 21.3243 6.86823C21.0545 6.9636 21.0959 6.55905 20.8582 6.66826C20.8414 6.7021 20.8 6.74517 20.8076 6.77901C20.9671 7.61582 21.3995 8.32802 21.8395 9.03561C22.3424 9.84472 22.5938 10.6723 22.7088 11.6706C22.8422 12.8335 22.8024 14.0103 22.9879 15.1778C23.2455 16.7991 22.8223 18.3543 21.3519 19.4003C21.3565 19.3233 21.3335 19.2295 21.3688 19.1726C22.856 16.8299 22.255 14.4287 21.6049 11.9829C21.8119 11.7691 21.9484 12.2259 22.2167 12.0829C22.2274 11.7583 21.9852 11.5137 21.8564 11.2261C21.6371 10.7338 21.0913 10.3508 21.4271 9.66321C21.5053 9.50323 21.2354 9.16175 21.1051 8.91409C20.4259 7.62505 20.0058 6.27601 20.133 4.79623C20.1514 4.57472 20.0732 4.3286 20.3615 4.10863C20.3599 4.68547 20.8705 4.68855 21.1863 4.85775C21.8763 5.22847 21.6616 4.34091 22.1047 4.16862C22.2504 4.16093 22.1783 4.52242 22.416 4.53319C22.6582 4.39013 22.5586 4.05479 22.7901 3.86405C23.063 3.92558 22.9695 4.28861 23.1841 4.42705C23.546 4.23015 23.6257 3.81944 23.8664 3.53948C24.2528 3.82867 24.5809 3.72254 24.8507 3.22107C24.9427 3.40104 25.0424 3.55025 25.0991 3.71484C25.257 4.17785 25.4027 4.59472 25.7645 3.82867C25.9393 3.45796 26.295 3.61486 26.5787 3.56256V3.56102Z" fill="#805FF8"/>
<path id="Vector_15" d="M15.8486 18.3281C16.4987 19.7048 18.1055 20.7662 19.5099 20.6277C21.0999 20.4724 22.5396 19.7602 23.0762 18.1758C23.6818 19.3556 23.0685 20.3201 22.4077 21.163C20.7212 23.3166 17.7743 22.9966 16.5002 20.5724C16.1338 19.8725 15.8072 19.151 15.8471 18.3265L15.8486 18.3281Z" fill="#805FF8"/>
<path id="Vector_16" d="M14.6422 15.8762C14.5195 15.5762 14.4061 15.2716 14.2696 14.9778C14.1899 14.804 13.1105 14.2041 12.8851 14.2287C12.7456 14.2441 12.7747 14.138 12.7747 14.1134C12.7349 13.2873 11.7321 12.6489 12.3056 11.6999C12.35 11.626 12.3239 11.4968 12.3056 11.3984C12.1262 10.3216 12.235 10.1201 13.2301 9.7063C13.2301 10.1647 13.2301 10.6216 13.2301 11.1215C13.6333 10.9615 13.5536 10.4739 13.9062 10.3016C14.0795 10.457 13.9921 10.6708 13.9998 10.8523C14.0151 11.1815 13.9292 11.5922 14.2374 11.7706C14.5579 11.9552 14.6713 11.4107 14.9918 11.3799C15.1558 11.6168 15.027 11.8768 15.0761 12.1136C15.1098 12.2798 14.9212 12.6597 15.3935 12.4536C15.5851 12.3705 15.671 12.572 15.6694 12.7182C15.6587 13.7919 15.579 14.8532 14.9166 15.7639C14.8676 15.8316 14.7357 15.8408 14.6437 15.8777L14.6422 15.8762Z" fill="#805FF8"/>
<path id="Vector_17" d="M7.46539 24.1473C7.46079 24.0627 7.45619 23.9796 7.45312 23.895C7.57118 23.9735 7.58498 24.0565 7.46539 24.1473Z" fill="#805FF8"/>
<path id="Vector_18" d="M21.3513 19.4018C21.3099 19.551 21.175 19.5494 21.0615 19.5802C21.1106 19.4448 21.2164 19.3987 21.3513 19.4018Z" fill="#805FF8"/>
<path id="Vector_19" d="M11.5486 26.6396C11.527 26.6272 11.5054 26.6147 11.4854 26.6023C11.507 26.6132 11.5301 26.6256 11.5517 26.6365L11.5486 26.6396Z" fill="#805FF8"/>
<path id="Vector_20" d="M43.5359 48.3253C43.5099 48.3268 43.4853 48.3299 43.4593 48.3314C43.355 48.3222 43.2461 48.3222 43.1357 48.3268C43.2477 48.3206 43.3565 48.3206 43.4608 48.3299C43.4853 48.3283 43.5114 48.3253 43.5359 48.3253Z" fill="#FAF3EC"/>
<path id="Vector_21" d="M23.785 42.0185C23.7942 43.0661 23.8004 44.1136 23.8111 45.1611C23.8157 45.6057 23.7022 45.6995 23.1855 45.678C22.2257 45.638 22.0648 45.0642 21.8685 44.3289C21.4254 42.6584 20.9378 40.9971 20.4089 39.3512C20.2617 38.8928 20.3138 38.7667 20.7661 38.6052C21.6355 38.2975 22.4067 37.7114 22.583 36.3916C21.2261 38.4698 19.1225 38.6636 17.0542 38.942C16.8349 38.9713 16.6203 39.0759 16.4026 39.0851C15.8935 39.1066 15.3492 39.2051 14.8831 39.0605C14.3588 38.899 14.5504 38.2206 14.3143 37.813C14.0537 37.3623 13.8283 36.8931 13.468 36.4778C13.2533 36.7808 13.609 36.9931 13.5477 37.25C13.5891 37.35 13.6305 37.4499 13.6704 37.5484C13.6964 37.593 13.7041 37.6407 13.6964 37.6899C13.6949 38.2006 13.7148 38.7113 13.6872 39.2205C13.606 40.6664 13.2886 41.9924 11.9179 42.8122C11.3307 43.163 10.7894 43.5921 10.2237 43.9782C8.36388 45.2473 7.43781 47.0116 7.42095 49.2621C7.30289 49.5513 7.02538 49.4559 6.90885 49.3667C6.54854 49.0913 6.2189 49.2759 5.91226 49.3974C5.41089 49.5974 5.17938 50.0466 4.88346 50.4896C4.67801 50.7957 3.90373 50.6373 3.57716 51.148C3.49283 51.2818 3.3901 51.3956 3.4269 51.5541C3.61089 52.3462 3.12639 52.3509 2.56983 52.317C2.13746 52.2909 1.70049 52.2893 1.26812 52.317C0.729964 52.3524 0.73763 52.0678 0.887886 51.7079C1.15927 51.0557 1.6453 50.5388 2.024 49.9543C2.1022 49.8343 2.26779 49.7666 2.14819 49.5743C1.54104 48.5945 1.65756 47.45 1.41685 46.3887C1.08567 44.9227 1.25433 43.5491 2.05773 42.3292C3.0298 40.8541 4.13218 39.4681 5.56421 38.3821C7.67393 36.7808 9.07529 34.715 9.57052 32.0753C9.58279 32.0077 9.61345 31.9446 9.65638 31.8215C10.7756 32.6953 11.9516 33.3767 13.3407 33.6197C13.4818 33.6443 13.6259 33.7105 13.7777 33.7043C16.3949 33.5936 18.983 34.1489 21.6048 34.0335C22.3637 33.9997 23.0614 33.6505 23.8234 33.7259C23.6332 36.2163 23.647 38.7113 23.6578 41.2048C23.6578 41.4771 23.575 41.7709 23.7866 42.0124L23.785 42.0185Z" fill="#D8C3F6"/>
<path id="Vector_22" d="M29.4574 7.86959C28.3459 7.96035 27.2496 7.74653 26.1671 7.54964C25.3653 7.40504 24.3365 7.51118 24.1004 6.33904C24.0651 6.16215 23.9164 6.20676 23.7998 6.18676C23.3154 6.10985 22.8523 6.26521 22.3985 6.37135C21.9155 6.48671 21.4663 7.56041 21.6794 7.94804C22.4767 9.40629 23.3475 10.7861 23.438 12.572C23.5101 14.001 23.5269 15.4193 23.4717 16.8406C23.4487 17.3882 23.7707 18.1804 24.2629 18.3065C24.3165 18.3204 24.6293 18.5634 24.6155 18.1219C24.5849 17.1313 24.5189 16.1315 24.3809 15.1685C24.0758 13.0535 24.5297 11.3445 26.391 10.137C26.2392 9.88161 26.0644 9.71702 25.7486 9.69856C25.6259 9.69087 25.4465 9.52935 25.5201 9.36476C25.5999 9.18632 25.7424 9.01404 25.9525 8.96174C26.1901 8.90021 26.1135 9.09711 26.1825 9.2094C26.4278 9.60319 26.9246 9.94775 27.2971 9.837C28.3627 9.52166 29.4605 9.18171 30.2578 8.22031C29.899 8.1957 29.7963 7.8419 29.4574 7.86959ZM24.2874 8.87098C24.1172 8.95559 23.9302 9.03865 23.8305 8.84945C23.7263 8.65102 23.8274 8.42797 24.039 8.35106C24.3871 8.22646 24.7091 8.08802 24.9191 7.71884C25.0678 8.31568 24.7581 8.63563 24.2874 8.87098Z" fill="#D8C3F6"/>
<path id="Vector_23" d="M17.5155 45.7165C17.9326 45.7134 18.3496 45.7211 18.7666 45.7026C19.0779 45.6888 19.4382 45.7995 19.4612 46.0487C19.5072 46.5656 19.5946 47.0701 19.6758 47.5793C19.6881 47.6531 19.6452 47.7515 19.6789 47.8054C20.1327 48.5253 19.8138 49.3006 19.889 50.0389C19.9533 50.6742 19.616 50.6434 19.2833 50.8249C18.8142 51.0834 18.6424 50.785 18.4646 50.4665C18.4201 50.3865 18.4324 50.2758 18.4201 50.1897C18.1227 50.1297 18.1104 50.385 18.0491 50.5096C17.7562 51.1157 17.1751 51.3326 16.8148 50.8342C16.43 50.305 16.3073 50.6911 16.1126 50.8988C15.832 51.2003 15.5929 51.4295 15.4165 50.8249C15.32 50.4958 15.0394 50.6404 14.837 50.6296C13.9814 50.5834 13.7162 50.122 14.1731 49.4005C14.3694 49.0898 14.6377 48.9006 14.1087 48.5883C13.7515 48.3761 13.8189 47.89 13.9692 47.4685C14.124 47.0317 14.446 47.0778 14.7726 47.0916C15.1314 47.107 15.3445 47.0963 15.4089 46.5979C15.5009 45.878 16.4101 45.5703 17.0387 45.958C17.2544 46.0913 17.42 46.0046 17.5355 45.698L17.5201 45.7149L17.5155 45.7165Z" fill="#A683FE"/>
<path id="Vector_24" d="M26.0997 50.4603C25.517 50.5865 24.9084 50.8864 24.5312 50.0727C24.4576 49.9127 24.3579 49.9604 24.154 50.668C23.7186 51.1141 23.2525 50.8295 22.9811 50.5511C22.7112 50.2742 22.6254 50.3081 22.4184 50.5373C22.147 50.8357 21.8649 51.1049 21.6073 50.5142C21.4847 50.2327 21.2194 50.3311 21.0032 50.3204C20.1416 50.2804 19.9024 49.8743 20.3669 49.1698C20.5586 48.879 20.7135 48.6637 20.3271 48.4268C19.9683 48.2068 19.8932 47.8346 20.0266 47.4946C20.1906 47.0793 20.6261 46.9439 21.0155 47.0255C21.385 47.1024 21.4295 46.9778 21.5077 46.6824C21.7131 45.9072 22.3862 45.5811 23.0746 45.9595C23.3383 46.1041 23.4319 46.1348 23.6879 45.941C24.2736 45.4965 24.8838 45.7118 25.4404 46.0579C25.862 46.321 25.583 46.6824 25.5017 47.0255C25.8636 47.167 26.2545 47.0285 26.6026 47.2393C27.1975 47.5992 27.3078 48.1684 26.7344 48.516C26.2453 48.8129 25.9433 49.039 26.2331 49.6682C26.3251 49.8697 26.1533 50.1927 26.1027 50.4619L26.0997 50.4603Z" fill="#A683FE"/>
<path id="Vector_25" d="M16.3027 40.1988C16.1494 41.4478 15.5392 42.5077 14.6376 43.4306C13.6119 44.4797 12.4421 45.4165 11.8993 46.8548C11.749 47.2516 11.6678 47.6962 11.5007 48.0515C11.3427 48.3884 11.7828 49.139 10.9134 49.0944C10.4903 49.0729 10.133 49.6313 9.65159 49.2821C9.34494 49.059 9.06283 49.5344 8.73625 49.2913C8.53387 49.1406 8.32842 49.1898 8.40354 48.736C8.79605 46.3517 10.4627 45.0335 12.2826 43.8183C13.2363 43.1814 14.2927 42.6477 14.5594 41.3802C14.653 40.9402 14.7373 40.4911 14.7588 40.0434C14.8063 39.062 15.5162 39.6927 15.8979 39.5773C16.4024 39.4235 16.2828 39.8711 16.2996 40.2003L16.3027 40.1988Z" fill="#D8C3F6"/>
<path id="Vector_26" d="M28.3749 17.8005C28.2338 17.5898 28.1418 17.4498 27.9624 17.1821C27.9716 17.7974 27.872 18.2697 27.6864 18.8527C26.9275 17.7528 25.9662 16.9822 24.9328 16.2653C24.436 15.9208 24.6829 15.1655 24.6246 14.6256C24.505 13.5242 25.0401 11.5829 26.4737 10.8169C26.9643 12.0675 27.3691 13.3581 28.4086 14.3102C28.7045 14.581 28.8394 14.9855 28.6324 15.4239C28.5113 15.6823 28.5374 15.9454 28.6539 16.2253C28.7198 16.3838 28.9805 16.8083 28.3856 16.6684C28.2399 16.6345 28.2476 16.8237 28.3197 16.9468C28.4577 17.1852 28.3994 17.4405 28.3718 17.799L28.3749 17.8005Z" fill="#A683FE"/>
<path id="Vector_27" d="M7.07709 52.6262C6.31048 52.6262 5.54387 52.6001 4.77879 52.6339C4.12871 52.6632 3.76687 52.2678 3.77453 51.7525C3.78067 51.3095 4.06891 50.8188 4.72973 50.9311C5.05937 50.9865 5.23569 50.9265 5.29856 50.4789C5.39515 49.8036 6.34881 49.4482 6.9667 49.8343C7.27948 50.0297 7.33621 50.0143 7.49413 49.699C7.73638 49.2129 8.13195 49.4159 8.46466 49.6051C8.77591 49.7836 9.2696 49.9251 9.04115 50.422C8.76517 51.0188 9.14081 50.9357 9.47659 50.9342C10.0837 50.9311 10.5483 51.1034 10.4686 51.8341C10.4103 52.3771 10.0515 52.6201 9.52718 52.6232C8.70998 52.6293 7.89277 52.6247 7.07556 52.6247L7.07709 52.6262Z" fill="#A683FE"/>
<path id="Vector_28" d="M17.5324 45.6995C16.821 45.4534 17.2196 44.855 17.2595 44.4997C17.4388 42.8938 17.7792 41.3063 17.9678 39.7004C18.0506 39.0005 18.5826 39.2389 18.9031 39.1251C19.1821 39.0266 19.5225 38.9882 19.7601 39.5173C20.2937 40.7018 19.9809 41.8016 19.7402 42.9399C19.6068 43.5737 19.4029 44.209 19.3906 44.8473C19.3784 45.4734 19.0457 45.4672 18.6716 45.3442C18.1656 45.1796 17.8175 45.335 17.5155 45.7164L17.5308 45.6995H17.5324Z" fill="#D8C3F6"/>
<path id="Vector_29" d="M7.42188 49.2667C7.43874 47.0148 8.36481 45.2504 10.2246 43.9829C10.7904 43.5968 11.3316 43.1692 11.9188 42.8169C13.2911 41.9955 13.6084 40.6695 13.6882 39.2251C13.7173 38.716 13.6958 38.2053 13.6974 37.6946C14.1788 39.1051 14.4272 40.5034 13.7204 41.934C13.2911 42.8015 12.3987 43.0323 11.7072 43.5291C10.2491 44.5782 8.86464 45.6703 8.18542 47.4239C8.04283 47.7916 7.85731 48.1623 7.88797 48.5499C7.91864 48.9529 7.73159 49.1314 7.42188 49.2683V49.2667Z" fill="#FAF3EC"/>
<path id="Vector_30" d="M12.1582 52.0448C11.4054 51.4941 10.7078 50.8342 9.76331 50.6342C9.26195 50.5281 9.51646 50.0851 9.32634 49.8559C9.24508 49.7574 9.23742 49.6436 9.33554 49.6021C9.60999 49.4882 9.80624 49.6959 10.0148 49.822C10.0976 49.8712 10.1665 49.9451 10.2846 50.0435C10.5299 49.2498 11.0681 49.3344 11.6108 49.5897C12.1965 49.8666 12.0861 50.3435 11.8178 50.845C12.1705 51.0019 12.4986 50.9126 12.8114 50.9372C13.302 50.9772 13.4338 51.3849 13.4614 51.7325C13.4936 52.1278 13.164 52.4678 12.8252 52.5801C12.4633 52.7001 12.4863 52.0802 12.1398 52.0263L12.1597 52.0463L12.1582 52.0448Z" fill="#A683FE"/>
<path id="Vector_31" d="M24.2846 50.7926C25.5786 50.6957 26.221 51.5079 26.7301 52.5632C25.8669 52.8969 25.8868 51.5402 25.0895 51.7387C25.1739 52.0755 25.6139 52.174 25.6599 52.6031H23.3754C23.1638 52.0801 22.9522 51.5587 22.7207 50.988C23.2604 50.9126 23.866 51.4664 24.2846 50.7926Z" fill="#D8C3F6"/>
<path id="Vector_32" d="M20.7533 51.6956C20.1676 51.1403 19.473 51.065 18.7171 51.2203C18.6528 51.2326 18.5347 51.045 18.4841 51.0634C18.064 51.2157 17.6546 51.3957 17.2422 51.5664C17.4277 51.9787 17.3909 52.5678 17.9996 52.6586C19.0161 52.8093 20.0189 52.5801 21.0139 52.5817C21.0768 52.1879 20.4681 52.0925 20.7533 51.6956ZM19.2568 51.7356C19.7107 51.7079 19.9223 51.9171 20.074 52.3463C19.6294 52.3155 19.4516 52.0602 19.2568 51.7356Z" fill="#D8C3F6"/>
<path id="Vector_33" d="M23.7852 42.0186C23.5752 41.7771 23.658 41.4833 23.6564 41.211C23.6457 38.716 23.6319 36.2209 23.822 33.7321C24.3111 33.6705 24.1363 34.0628 24.1087 34.2382C23.7147 36.8209 23.8634 39.4251 23.7852 42.0186Z" fill="#FAF3EC"/>
<path id="Vector_34" d="M12.158 52.0447L12.1381 52.0247C12.0921 52.0739 12.0246 52.117 12.0047 52.1755C11.948 52.3447 12.3405 52.4308 12.1396 52.58C11.925 52.7385 11.7977 52.457 11.6459 52.3401C11.5294 52.1186 11.235 52.0816 11.1752 52.2109C11.0786 52.4216 11.3331 52.4785 11.5187 52.5031C11.2228 52.7277 10.9008 52.6016 10.5527 52.5985C10.7107 52.2508 10.8088 51.9278 10.8134 51.5525C11.1645 51.6079 11.3684 51.8371 11.6199 51.974C11.7655 52.0524 11.9388 52.3878 12.158 52.0447Z" fill="#D8C3F6"/>
<path id="Vector_35" d="M13.6734 37.5515C13.632 37.4515 13.5906 37.3515 13.5508 37.2531C13.701 37.3069 13.6949 37.4269 13.6734 37.5515Z" fill="#FAF3EC"/>
<path id="Vector_36" d="M24.919 7.71887C25.0678 8.31417 24.7581 8.63566 24.2874 8.87101C24.1187 8.95562 23.9301 9.03714 23.8305 8.84794C23.7262 8.64951 23.8274 8.42646 24.039 8.35109C24.387 8.22649 24.709 8.08805 24.919 7.71887Z" fill="#030303"/>
<path id="Vector_37" d="M20.076 52.3463C19.6314 52.3155 19.4535 52.0602 19.2588 51.7356C19.7126 51.7079 19.9242 51.9156 20.076 52.3463Z" fill="#030303"/>
<path id="Vector_38" d="M11.5189 52.5046C11.3334 52.48 11.0789 52.4231 11.1755 52.2124C11.2353 52.0832 11.5297 52.1201 11.6462 52.3416L11.5189 52.5062V52.5046Z" fill="#030303"/>
</g>
<defs>
<clipPath id="clip0_53_8529">
<rect width="95" height="53" fill="white"/>
</clipPath>
</defs>
</svg>
