<svg width="95" height="124" viewBox="0 0 95 124" fill="none" xmlns="http://www.w3.org/2000/svg">
<g id="Paws">
<g id="Paw">
<path id="Path" d="M86.4115 66.6932C86.1782 64.7045 84.9874 62.9962 83.2254 62.1238C81.4639 61.2518 79.4162 61.3565 77.7478 62.4038L73.7278 64.9278C73.0606 65.3464 72.5541 65.9609 72.2622 66.7037C71.9702 67.447 71.9211 68.2495 72.1199 69.0243C72.3187 69.799 72.747 70.4732 73.3577 70.9739C73.9687 71.4747 74.7055 71.7547 75.4878 71.784L75.5403 71.7859C77.5021 71.8737 79.3539 72.7986 80.6288 74.3294C80.9574 74.7239 81.3553 75.0381 81.8017 75.2592C82.0445 75.3793 82.3019 75.472 82.5708 75.5355C83.3336 75.7149 84.1156 75.6402 84.833 75.3189C85.5496 74.9976 86.1342 74.46 86.5226 73.7645C86.911 73.0689 87.0669 72.281 86.9738 71.4856L86.4115 66.6932Z" fill="#EFEFEF"/>
<path id="Path_2" d="M75.717 61.5267C76.5364 61.5985 77.3304 61.284 77.9531 60.6415C78.546 60.0303 78.913 59.1888 78.9866 58.2716C79.0598 57.3544 78.8319 56.4615 78.3449 55.7569C77.8334 55.0164 77.1007 54.57 76.2821 54.4994C74.6363 54.3566 73.1701 55.8167 73.0133 57.7553C72.8902 59.2991 73.6348 60.6867 74.7746 61.2589C75.0657 61.4051 75.3824 61.4981 75.717 61.5267Z" fill="#EFEFEF"/>
<path id="Path_3" d="M81.81 60.25C83.5007 61.0091 85.6338 60.172 86.5656 58.384C87.4974 56.5953 86.8805 54.5227 85.1897 53.7632C83.4996 53.0041 81.3662 53.8416 80.4344 55.6303C79.5026 57.4183 80.1196 59.4909 81.81 60.25Z" fill="#EFEFEF"/>
<path id="Path_4" d="M86.9028 63.712V63.7124C87.1315 63.935 87.3883 64.1131 87.6648 64.2474C88.9555 64.8737 90.6681 64.5415 91.8466 63.3262C92.5248 62.6265 92.9318 61.7361 92.9921 60.8191C93.0554 59.8595 92.7364 58.9855 92.0935 58.3584C91.4506 57.7314 90.571 57.4357 89.6163 57.5259C88.7041 57.6123 87.8283 58.0453 87.1501 58.745C85.7193 60.221 85.6082 62.4492 86.9028 63.712Z" fill="#EFEFEF"/>
<path id="Path_5" d="M94.6772 66.279L94.6768 66.2782C93.8651 64.6087 91.7805 64.0583 90.0291 65.0509C88.2788 66.0452 87.5134 68.2121 88.3228 69.8811C88.618 70.4901 89.0827 70.9505 89.6389 71.2412C90.6084 71.7483 91.8562 71.7407 92.9706 71.1097C94.7212 70.1154 95.4866 67.9485 94.6772 66.279Z" fill="#EFEFEF"/>
</g>
<g id="Paw Copy">
<path id="Path_6" d="M76.4115 13.3375C76.1782 11.3488 74.9874 9.64046 73.2254 8.7681C71.4639 7.8961 69.4162 8.00083 67.7478 9.04812L63.7278 11.5721C63.0606 11.9907 62.5541 12.6052 62.2622 13.348C61.9702 14.0913 61.9211 14.8938 62.1199 15.6686C62.3187 16.4433 62.747 17.1175 63.3577 17.6183C63.9687 18.119 64.7055 18.399 65.4878 18.4283L65.5403 18.4302C67.5021 18.518 69.3539 19.4429 70.6288 20.9737C70.9574 21.3682 71.3553 21.6824 71.8017 21.9035C72.0445 22.0236 72.3019 22.1163 72.5708 22.1798C73.3336 22.3592 74.1156 22.2845 74.833 21.9632C75.5496 21.6419 76.1342 21.1043 76.5226 20.4088C76.911 19.7132 77.0669 18.9253 76.9738 18.1299L76.4115 13.3375Z" fill="#EFEFEF"/>
<path id="Path_7" d="M65.717 8.17119C66.5364 8.24296 67.3304 7.92849 67.9531 7.28603C68.546 6.67483 68.913 5.83327 68.9866 4.91608C69.0598 3.99889 68.8319 3.10601 68.3449 2.40143C67.8334 1.66097 67.1007 1.21453 66.2821 1.14392C64.6363 1.00115 63.1701 2.46124 63.0133 4.3998C62.8902 5.94363 63.6348 7.33118 64.7746 7.90341C65.0657 8.04965 65.3824 8.14264 65.717 8.17119Z" fill="#EFEFEF"/>
<path id="Path_8" d="M71.81 6.89429C73.5007 7.65343 75.6338 6.81626 76.5656 5.02824C77.4974 3.23955 76.8805 1.16698 75.1897 0.407509C73.4996 -0.351626 71.3662 0.485877 70.4344 2.27457C69.5026 4.06259 70.1196 6.13516 71.81 6.89429Z" fill="#EFEFEF"/>
<path id="Path_9" d="M76.9028 10.3563V10.3567C77.1315 10.5793 77.3883 10.7574 77.6648 10.8917C78.9555 11.518 80.6681 11.1858 81.8466 9.97048C82.5248 9.27075 82.9318 8.38039 82.9921 7.46339C83.0554 6.50378 82.7364 5.62978 82.0935 5.00272C81.4506 4.37566 80.571 4.08001 79.6163 4.17019C78.7041 4.25657 77.8283 4.68957 77.1501 5.3893C75.7193 6.86525 75.6082 9.09344 76.9028 10.3563Z" fill="#EFEFEF"/>
<path id="Path_10" d="M84.6772 12.9233L84.6768 12.9225C83.8651 11.253 81.7805 10.7026 80.0291 11.6952C78.2788 12.6895 77.5134 14.8563 78.3228 16.5254C78.618 17.1344 79.0827 17.5948 79.6389 17.8855C80.6084 18.3926 81.8562 18.385 82.9706 17.754C84.7212 16.7596 85.4866 14.5928 84.6772 12.9233Z" fill="#EFEFEF"/>
</g>
<g id="Paw_2">
<path id="Path_11" d="M22.2938 58.3693C22.0139 56.0965 20.5847 54.1441 18.4707 53.1471C16.3566 52.1505 13.8992 52.2702 11.8973 53.4671L7.07319 56.3517C6.27284 56.83 5.66464 57.5323 5.31453 58.3813C4.96437 59.2307 4.9054 60.1479 5.14354 61.0334C5.38235 61.9188 5.89614 62.6893 6.62933 63.2616C7.36248 63.8339 8.24641 64.1539 9.18526 64.1873L9.24824 64.1895C11.6023 64.2899 13.8246 65.3469 15.3543 67.0964C15.749 67.5472 16.2261 67.9063 16.762 68.159C17.0533 68.2963 17.3624 68.4022 17.6848 68.4747C18.6001 68.6798 19.5388 68.5944 20.3995 68.2272C21.2597 67.86 21.9609 67.2457 22.427 66.4507C22.8931 65.6558 23.0803 64.7553 22.9685 63.8463L22.2938 58.3693Z" fill="#EFEFEF"/>
<path id="Path_12" d="M10.1697 52.465C11.1255 52.5471 12.052 52.1877 12.7786 51.4534C13.4701 50.7549 13.8984 49.7931 13.9843 48.7449C14.0698 47.6967 13.8039 46.6763 13.2358 45.871C12.6389 45.0248 11.7838 44.5146 10.8291 44.4339C8.90911 44.2707 7.19842 45.9394 7.01548 48.1549C6.87188 49.9193 7.74047 51.505 9.07019 52.159C9.4097 52.3261 9.77935 52.4324 10.1697 52.465Z" fill="#EFEFEF"/>
<path id="Path_13" d="M17.0687 52.1162C19.0007 53.0923 21.4388 52.0159 22.5036 49.717C23.5686 47.4173 22.8632 44.7526 20.9312 43.7761C18.9994 42.8001 16.5613 43.8769 15.4963 46.1766C14.4315 48.4755 15.1369 51.1402 17.0687 52.1162Z" fill="#EFEFEF"/>
<path id="Path_14" d="M23.0315 55.5377L23.0317 55.5381C23.2928 55.7925 23.5864 55.996 23.9026 56.1495C25.3777 56.8653 27.3348 56.4857 28.6815 55.0968C29.457 54.2971 29.922 53.2795 29.991 52.2315C30.0634 51.1348 29.6987 50.136 28.9641 49.4193C28.2293 48.7027 27.2238 48.3648 26.1327 48.4679C25.0904 48.5666 24.0895 49.0614 23.3144 49.8611C21.6792 51.5479 21.5523 54.0944 23.0315 55.5377Z" fill="#EFEFEF"/>
<path id="Path_15" d="M29.6771 59.2322L29.6769 59.2313C28.8651 57.5618 26.7805 57.0114 25.0292 58.004C23.2787 58.9983 22.5134 61.1652 23.3229 62.8342C23.618 63.4432 24.0827 63.9037 24.639 64.1944C25.6084 64.7015 26.8564 64.6938 27.9708 64.0628C29.7211 63.0685 30.4866 60.9017 29.6771 59.2322Z" fill="#EFEFEF"/>
</g>
<g id="Paw_3">
<path id="Path_16" d="M20.1761 111.823C19.8495 109.124 18.1823 106.806 15.7156 105.622C13.2494 104.439 10.3822 104.581 8.04692 106.002L2.41872 109.427C1.48498 109.995 0.775415 110.829 0.36695 111.838C-0.0415668 112.846 -0.110372 113.935 0.167467 114.987C0.446076 116.038 1.0455 116.953 1.90089 117.633C2.75623 118.312 3.78748 118.693 4.88292 118.732L4.95634 118.735C7.70289 118.854 10.2954 120.109 12.0802 122.187C12.5403 122.722 13.0969 123.149 13.7223 123.449C14.0622 123.612 14.4227 123.737 14.799 123.824C15.8671 124.067 16.9618 123.966 17.9661 123.53C18.9695 123.094 19.7879 122.364 20.3317 121.42C20.8755 120.476 21.0937 119.407 20.9633 118.327L20.1761 111.823Z" fill="#EFEFEF"/>
<path id="Path_17" d="M5.62263 104.813C6.7151 104.905 7.77386 104.501 8.60411 103.675C9.39471 102.889 9.88394 101.807 9.98209 100.627C10.0797 99.4482 9.77589 98.3002 9.12655 97.3943C8.44451 96.4423 7.46753 95.8683 6.37606 95.7775C4.18171 95.594 2.22677 97.4712 2.01769 99.9637C1.85358 101.949 2.84626 103.733 4.3661 104.468C4.75421 104.656 5.17653 104.776 5.62263 104.813Z" fill="#EFEFEF"/>
<path id="Path_18" d="M14.3272 104.425C16.501 105.51 19.2435 104.314 20.4415 101.759C21.6395 99.2042 20.8463 96.2434 18.6725 95.1584C16.4996 94.0739 13.7566 95.2704 12.5582 97.8256C11.3606 100.38 12.1539 103.341 14.3272 104.425Z" fill="#EFEFEF"/>
<path id="Path_19" d="M21.1607 109.779V109.78C21.4547 110.066 21.7849 110.295 22.1404 110.467C23.8 111.273 26.0018 110.846 27.5171 109.283C28.389 108.383 28.9123 107.239 28.9898 106.06C29.0713 104.826 28.6611 103.702 27.8345 102.896C27.0079 102.09 25.877 101.71 24.6495 101.826C23.4767 101.937 22.3506 102.493 21.4786 103.393C19.6391 105.291 19.4962 108.155 21.1607 109.779Z" fill="#EFEFEF"/>
<path id="Path_20" d="M29.6311 112.834L29.6306 112.833C28.703 110.925 26.3205 110.296 24.3189 111.43C22.3187 112.567 21.4439 115.043 22.3689 116.951C22.7062 117.647 23.2374 118.173 23.873 118.505C24.981 119.085 26.4071 119.076 27.6806 118.355C29.6813 117.218 30.5561 114.742 29.6311 112.834Z" fill="#EFEFEF"/>
</g>
</g>
</svg>
